<?xml version="1.0" standalone="no"?>
<!DOCTYPE svg PUBLIC "-//W3C//DTD SVG 1.0//EN" "http://www.w3.org/TR/2001/REC-SVG-20010904/DTD/svg10.dtd">
<svg xmlns="http://www.w3.org/2000/svg" xmlns:xlink="http://www.w3.org/1999/xlink" id="body_1" width="1024" height="768">

<g transform="matrix(4.649051 0 0 4.649051 -413.76556 -308.77838)">
	<g>
        <path d="M158.29 185.61L158.29 208.56L93.28999 208.56L93.28999 185.61C 93.16853 175.42651 97.755806 165.75743 105.71999 159.41C 110.60835 155.57614 116.63754 153.48546 122.84999 153.47L122.84999 153.47L128.76999 153.47C 134.97914 153.48691 141.0047 155.57755 145.88998 159.41C 153.84294 165.76347 158.4187 175.43163 158.29 185.61z" stroke="none" fill="#FFC9B0" fill-rule="nonzero" />
        <path d="M158.29 209.56L93.28999 209.56C 92.73771 209.56 92.28999 209.11229 92.28999 208.56L92.28999 208.56L92.28999 185.61C 92.1888 175.1185 96.915924 165.16278 105.10999 158.61C 110.16881 154.63313 116.41517 152.46768 122.84999 152.46L122.84999 152.46L128.76999 152.46C 135.20177 152.4676 141.44499 154.63318 146.49998 158.61C 154.6966 165.16173 159.42726 175.11713 159.32999 185.61L159.32999 185.61L159.32999 208.56C 159.33022 208.83229 159.21939 209.0929 159.02312 209.28162C 158.82683 209.47035 158.56209 209.57088 158.29 209.56zM94.28999 207.56L157.29 207.56L157.29 185.61C 157.39935 175.74773 152.97585 166.38097 145.29 160.2C 140.58112 156.49959 134.76884 154.48236 128.78 154.47L128.78 154.47L122.86 154.47C 116.86784 154.4809 111.05194 156.49815 106.34 160.2C 98.65294 166.37999 94.22914 175.74739 94.34 185.61z" stroke="none" fill="#093F68" fill-rule="nonzero" />
        <path d="M145.85 159.41L145.85 208.56L105.68 208.56L105.68 159.41C 108.054924 157.5632 110.707924 156.10506 113.54 155.09C 116.51268 154.0165 119.64943 153.46834 122.81 153.47L122.81 153.47L128.73 153.47C 131.89047 153.46935 135.02705 154.01749 138 155.09C 140.82794 156.10739 143.4773 157.56538 145.85 159.41z" stroke="none" fill="#68E1FD" fill-rule="nonzero" />
        <path d="M145.85 209.56L105.68 209.56C 105.127716 209.56 104.68 209.11229 104.68 208.56L104.68 208.56L104.68 159.41C 104.68075 159.10051 104.82476 158.8088 105.07 158.62001C 107.52436 156.70612 110.26902 155.19705 113.2 154.15001C 116.28087 153.03398 119.53322 152.46541 122.81 152.47002L122.81 152.47002L128.73 152.47002C 132.00665 152.46706 135.2587 153.03557 138.34 154.15001C 141.26788 155.19707 144.00926 156.70618 146.45999 158.62001C 146.70525 158.8088 146.84926 159.10051 146.84999 159.41L146.84999 159.41L146.84999 208.56C 146.85 209.11227 146.4023 209.55998 145.85 209.56zM106.68001 207.56L144.85 207.56L144.85 159.9C 142.66025 158.25786 140.23663 156.95337 137.66 156.03C 134.79665 154.99487 131.77472 154.46696 128.73001 154.47L128.73001 154.47L122.81001 154.47C 119.76197 154.46622 116.73664 154.99413 113.87001 156.03C 111.29436 156.95555 108.87106 158.25989 106.68001 159.9z" stroke="none" fill="#093F68" fill-rule="nonzero" />
        <path d="M138 155.09C 137.23 163.09 132 169.34 125.770004 169.34C 119.54001 169.34 114.310005 163.12 113.54001 155.09C 116.51269 154.0165 119.64944 153.46834 122.81001 153.47L122.81001 153.47L128.73001 153.47C 131.89049 153.46935 135.02707 154.01749 138 155.09z" stroke="none" fill="#FFC9B0" fill-rule="nonzero" />
        <path d="M125.77 170.34C 119.06 170.34 113.369995 163.81999 112.53999 155.18C 112.51385 154.73717 112.78255 154.33005 113.2 154.18C 116.28087 153.06396 119.53322 152.49539 122.81 152.5L122.81 152.5L128.73 152.5C 132.00665 152.49704 135.2587 153.06555 138.34 154.18C 138.75348 154.3335 139.01756 154.73978 138.98999 155.18C 138.16 163.82 132.48 170.34 125.77 170.34zM114.619995 155.76999C 115.619995 162.98999 120.28999 168.34 125.77 168.34C 131.25 168.34 135.94 162.98999 136.91 155.76999C 134.26868 154.90913 131.50807 154.4704 128.73001 154.46999L128.73001 154.46999L122.81001 154.46999C 120.02867 154.47035 117.264755 154.90907 114.62 155.77z" stroke="none" fill="#093F68" fill-rule="nonzero" />
        <path d="M120.98 155.56L120.98 143.87L129.85 143.87L129.85 155.56" stroke="none" fill="#FFC9B0" fill-rule="nonzero" />
        <path d="M129.85 156.56C 129.29771 156.56 128.85 156.11229 128.85 155.56L128.85 155.56L128.85 144.87L122 144.87L122 155.56C 122 156.11229 121.552284 156.56 121 156.56C 120.447716 156.56 120 156.11229 120 155.56L120 155.56L120 143.87C 120 143.3177 120.447716 142.87 121 142.87L121 142.87L129.87 142.87C 130.42229 142.87 130.87 143.3177 130.87 143.87L130.87 143.87L130.87 155.56C 130.87006 155.82872 130.76195 156.08614 130.57007 156.27426C 130.37819 156.46239 130.11867 156.56537 129.85 156.56z" stroke="none" fill="#093F68" fill-rule="nonzero" />
        <path d="M124.1 80.81C 125.86887 81.68244 127.256454 83.173195 128 85C 129.30168 83.184654 131.42786 82.14411 133.66 82.23C 134.96011 82.26393 136.2301 82.62875 137.35 83.29C 138.41 83.950005 139 85.29 140.06001 85.87C 141.12003 86.450005 142.12001 86.04 143.35 86.01C 145.09631 86.02433 146.82999 86.307655 148.49 86.85C 150.1705 87.19567 151.7035 88.051216 152.88 89.299995C 154.07 90.829994 154 92.81 153.75 94.619995C 159.44 92.619995 161.09 101.38999 158.28 104.7C 159.85905 106.58043 160.5753 109.03782 160.25389 111.472176C 159.93248 113.90654 158.60298 116.09383 156.59 117.5C 158.17 118.75 157.59 121.24 156.92 123.13C 155.59999 126.7 155.34999 129.94 151.3 130.26C 149.16 130.43 146.94 130.26 144.8 130.26L144.8 130.26L96.26 130.26C 97.12 130.26 93.920006 125.31 93.83 125.09999C 92.819336 122.8245 92.77961 120.23541 93.72 117.92999C 89.93 115.10999 89.98 108.52999 93.8 105.759995C 91.642006 100.822174 93.8756 95.06843 98.8 92.88C 98.340004 89.689995 100.8 86.619995 103.8 85.39C 106.990005 84.08 110.170006 84.64 113.47 84.75C 114.270004 81.75 117.99 79.89 120.92 80.01C 122.024536 80.04954 123.10824 80.32217 124.1 80.81z" stroke="none" fill="#725858" fill-rule="nonzero" />
        <path d="M149.13 131.31C 148.39 131.31 147.65001 131.31 146.92 131.31C 146.18999 131.31 145.49 131.31 144.79 131.31L144.79 131.31L96.26 131.31C 95.927414 131.30835 95.61742 131.14145 95.43293 130.86472C 95.24844 130.58798 95.213615 130.23764 95.340004 129.93C 94.748856 128.61449 94.0498 127.35015 93.25001 126.149994C 93.05001 125.81999 92.93001 125.59999 92.91001 125.549995C 91.90964 123.25556 91.77464 120.67633 92.530014 118.28999C 90.82928 116.60049 89.87286 114.30227 89.87286 111.90499C 89.87286 109.50771 90.82928 107.209496 92.530014 105.51999C 90.719986 100.3927 92.96933 94.71597 97.8 92.22C 97.700005 88.68 100.46001 85.67 103.450005 84.44C 106.22 83.29 108.96001 83.44 111.61 83.62L111.61 83.62L112.8 83.69C 114.100006 80.61 117.920006 78.840004 120.990005 78.98C 122.22945 79.04028 123.44236 79.36055 124.55 79.920006C 126.0395 80.6652 127.30044 81.79832 128.2 83.200005C 129.69887 81.85568 131.65749 81.13956 133.67 81.200005C 135.14696 81.23974 136.58925 81.65625 137.86 82.41C 138.45877 82.81703 138.98593 83.320526 139.42 83.9C 139.72627 84.31107 140.09785 84.66915 140.52 84.96C 141.0432 85.18785 141.62772 85.23363 142.18001 85.09C 142.55753 85.03114 142.93819 84.994415 143.32 84.979996C 145.16846 84.984024 147.00456 85.28104 148.76001 85.85999C 150.64438 86.25611 152.35768 87.23164 153.66 88.649994C 154.62659 90.00365 155.05763 91.66729 154.87001 93.31999C 156.61378 93.16489 158.29878 93.99389 159.24 95.46999C 160.95013 98.25262 161.0642 101.73133 159.54001 104.619995C 162.3928 108.710815 161.74947 114.286354 158.04001 117.619995C 158.85 118.95999 158.78001 120.899994 157.85 123.42999C 157.63 124.01999 157.44 124.59999 157.26001 125.159996C 156.35 127.979996 155.40001 130.89 151.37001 131.16C 150.63 131.29 149.88 131.31 149.13 131.31zM97.240005 129.23L144.79001 129.23C 145.51001 129.23 146.24 129.23 146.97 129.23C 148.38232 129.30519 149.79767 129.30519 151.21 129.23C 153.8 129.03 154.38 127.56999 155.36 124.56C 155.55 123.979996 155.75 123.369995 155.97 122.75C 156.56 121.17 157.03 119.1 155.97 118.25C 155.71413 118.04858 155.57234 117.735176 155.59 117.41C 155.60916 117.086 155.7844 116.79145 156.06 116.62C 157.81844 115.371544 158.97804 113.44763 159.2607 111.30967C 159.54335 109.17171 158.92358 107.01255 157.55 105.350006C 157.21246 104.970924 157.21246 104.399086 157.55 104.020004C 158.99 102.32001 159.03 98.64001 157.63 96.600006C 156.89134 95.41067 155.3856 94.95296 154.11 95.53001C 153.77052 95.65915 153.38773 95.59407 153.11 95.36001C 152.84334 95.13795 152.71088 94.79352 152.76 94.450005C 152.98 92.82001 153.06 91.130005 152.09 89.880005C 151.03188 88.80756 149.67712 88.07621 148.2 87.78001C 146.64305 87.25716 145.01239 86.98707 143.37 86.98C 143.06192 86.99317 142.7548 87.02322 142.45 87.07C 141.4847 87.284065 140.47519 87.16052 139.59 86.72C 138.93086 86.32282 138.35655 85.79949 137.9 85.18C 137.59457 84.77216 137.23065 84.41161 136.81999 84.11C 135.84924 83.54525 134.75261 83.232414 133.62999 83.2C 131.73979 83.11922 129.9358 83.9949 128.82999 85.53C 128.62254 85.83331 128.26544 85.99842 127.89999 85.96C 127.52949 85.92392 127.209694 85.685036 127.069984 85.34C 126.41449 83.75763 125.206116 82.467514 123.66998 81.71C 122.8192 81.27397 121.88495 81.02506 120.929985 80.979996C 118.429985 80.89 115.14999 82.49 114.48998 84.979996C 114.369316 85.42921 113.95485 85.73591 113.48998 85.71999C 112.82998 85.71999 112.16998 85.659996 111.48998 85.619995C 108.94998 85.46999 106.55998 85.31999 104.209984 86.28999C 101.859985 87.259995 99.429985 89.87999 99.83998 92.70999C 99.90867 93.17308 99.64689 93.62184 99.209984 93.78999C 94.8083 95.73881 92.79657 100.86848 94.69998 105.28999C 94.91442 105.7266 94.783585 106.25418 94.389984 106.53999C 92.83106 107.844925 91.92377 109.768555 91.90836 111.8015C 91.89296 113.834435 92.77101 115.7716 94.30998 117.09999C 94.68102 117.37325 94.8173 117.86468 94.639984 118.28999C 93.812874 120.34337 93.84893 122.643555 94.73998 124.66999C 94.8331 124.77476 94.91992 124.88496 95 125C 95.87207 126.33993 96.621765 127.755646 97.24 129.23z" stroke="none" fill="#093F68" fill-rule="nonzero" />
        <path d="M94.92 127.78C 94.92 123.78698 98.45695 120.549995 102.82 120.549995C 107.18305 120.549995 110.72 123.78698 110.72 127.78C 110.72 131.77301 107.18305 135.01 102.82 135.01C 98.45695 135.01 94.92 131.77301 94.92 127.78" stroke="none" fill="#FFC9B0" fill-rule="nonzero" />
        <path d="M102.82 136C 97.92 136 93.93 132.31 93.93 127.78C 93.93 123.25 97.93 119.55 102.82 119.55C 107.71 119.55 111.72 123.240005 111.72 127.78C 111.72 132.31999 107.73 136 102.82 136zM102.82 121.55C 99.02 121.55 95.93 124.340004 95.93 127.78001C 95.93 131.22 99 134 102.82 134C 106.64 134 109.72 131.21 109.72 127.78C 109.72 124.34999 106.63 121.55 102.82 121.55z" stroke="none" fill="#093F68" fill-rule="nonzero" />
        <path d="M140.96 127.78C 140.96 123.78698 144.49695 120.549995 148.86 120.549995C 153.22305 120.549995 156.76 123.78698 156.76 127.78C 156.76 131.77301 153.22305 135.01 148.86 135.01C 144.49695 135.01 140.96 131.77301 140.96 127.78" stroke="none" fill="#FFC9B0" fill-rule="nonzero" />
        <path d="M148.86 136C 143.96 136 139.97 132.31 139.97 127.78C 139.97 123.25 143.97 119.55 148.86 119.55C 153.75 119.55 157.76 123.240005 157.76 127.78C 157.76 132.31999 153.77 136 148.86 136zM148.86 121.55C 145.06 121.55 141.97 124.340004 141.97 127.78001C 141.97 131.22 145.06 134 148.86 134C 152.66 134 155.76 131.21 155.76 127.78C 155.76 124.34999 152.67 121.55 148.86 121.55z" stroke="none" fill="#093F68" fill-rule="nonzero" />
        <path d="M126.07 151.33C 114.3006 151.33716 104.081955 143.22443 101.42 131.76001C 100.34 127.08001 100.79 122.94001 101.24 118.17001C 101.26089 117.27153 101.46506 116.38679 101.84 115.570015C 101.57 116.06001 107.13 114.85001 107.689995 114.570015C 109.90147 113.34059 111.35607 111.0912 111.56999 108.570015C 113.09999 110.06001 115.66999 110.000015 117.56999 108.94002C 119.35576 107.74915 120.80273 106.11615 121.76999 104.20002C 122.53772 106.66049 124.570305 108.51733 127.08999 109.06002C 129.5917 109.49242 132.141 108.61751 133.84999 106.74002C 133.74998 109.53002 135.76999 111.53002 138.62999 111.74002C 140.819 111.915855 142.93524 110.90922 144.18 109.10002C 144.27249 110.91751 145.16905 112.599556 146.62631 113.689606C 148.08357 114.779655 149.95036 115.16463 151.71999 114.74002C 151.93768 116.76923 152.04117 118.80919 152.02998 120.85002C 151.88998 122.57002 151.39998 124.27002 151.39998 126.04002C 151.39998 132.75427 148.73001 139.19295 143.97858 143.93689C 139.22713 148.68083 132.78424 151.3406 126.07 151.33z" stroke="none" fill="#FFC9B0" fill-rule="nonzero" />
        <path d="M126.07 152.33C 113.84236 152.33305 103.22562 143.90845 100.45 132C 99.369995 127.37 99.75 123.36 100.18 118.71L100.18 118.71L100.24 118.09C 100.26862 117.05079 100.513855 116.029 100.96 115.09C 101.216705 114.60718 101.81362 114.42008 102.299995 114.67C 103.96916 114.47979 105.618645 114.14521 107.229996 113.67C 109.1304 112.6057 110.38098 110.66992 110.56999 108.5C 110.59491 108.109825 110.84493 107.76996 111.20999 107.63C 111.57304 107.4935 111.98228 107.57925 112.259995 107.85C 113.49999 109.049995 115.63999 108.85 117.02999 108.06C 118.6591 106.95454 119.97772 105.450005 120.85999 103.689995C 121.05766 103.34023 121.44545 103.14272 121.84459 103.18853C 122.24372 103.23433 122.5767 103.51455 122.689995 103.899994C 123.34884 106.00929 125.09034 107.601845 127.24999 108.06999C 129.41373 108.44797 131.62051 107.693504 133.09999 106.06999C 133.38895 105.77424 133.8301 105.6868 134.20999 105.84999C 134.60378 106.020134 134.84518 106.42247 134.81 106.84999C 134.73 109.02999 136.29 110.63999 138.68 110.84999C 140.50577 110.98506 142.26682 110.14447 143.31 108.63999C 143.55017 108.28112 143.99356 108.11694 144.40953 108.23287C 144.8255 108.34879 145.12007 108.718636 145.14 109.149994C 145.21616 110.67087 145.96664 112.078545 147.18697 112.98943C 148.40727 113.900314 149.97026 114.21949 151.45 113.85999C 151.74283 113.79054 152.05135 113.85666 152.29 114.03999C 152.5271 114.22227 152.67018 114.50109 152.68 114.799995C 152.68 115.52 152.78 116.24999 152.84 116.979996C 153.0105 118.32284 153.06068 119.67822 152.98999 121.03C 152.93 121.79 152.79999 122.53 152.68 123.24C 152.49661 124.196655 152.3896 125.166374 152.35999 126.14C 152.28851 140.61363 140.54382 152.31367 126.07 152.33zM102.47 116.67C 102.34808 117.19282 102.26783 117.72448 102.23 118.259995L102.23 118.259995L102.23 118.88C 101.810005 123.35 101.450005 127.21 102.450005 131.53C 103.283035 135.1305 104.92829 138.49284 107.26 141.36C 113.76209 149.29948 124.55086 152.29846 134.21753 148.85345C 143.88419 145.40843 150.34464 136.26218 150.36 126C 150.38759 124.91884 150.50467 123.84184 150.71 122.78C 150.83 122.07 150.94 121.4 150.99 120.78C 151.05127 119.5416 151.00443 118.30026 150.85 117.07C 150.85 116.68 150.78 116.29 150.75 115.9C 147.56996 116.12522 144.62968 114.20321 143.56 111.200005C 142.13672 112.34328 140.32959 112.89795 138.51 112.75001C 136.01772 112.64905 133.84784 111.01666 133.06 108.65001C 131.26425 109.93611 129.01892 110.42784 126.85 110.01001C 124.65962 109.53369 122.75925 108.18247 121.59 106.27001C 120.68273 107.69387 119.46153 108.89112 118.02 109.77001C 116.27858 110.786026 114.16867 110.95173 112.28999 110.22001C 111.64186 112.40754 110.17751 114.262146 108.2 115.40001C 107.120605 115.79285 106.01 116.09392 104.88 116.30001C 104.08575 116.47654 103.28065 116.60014 102.47 116.67z" stroke="none" fill="#093F68" fill-rule="nonzero" />
        <path d="M126 137.23C 125.21958 137.22697 124.44059 137.16345 123.67 137.04C 123.40871 136.9937 123.17653 136.84543 123.024605 136.62785C 122.87268 136.41028 122.81347 136.14125 122.86 135.87999C 122.956566 135.34045 123.46946 134.9792 124.01 135.06999C 125.05761 135.24771 126.125565 135.2713 127.18 135.14C 126.807106 133.32133 126.14899 131.57309 125.23 129.96C 124.964905 129.47124 125.14623 128.8601 125.635 128.59502C 126.12377 128.32991 126.73491 128.51123 127 129C 128 131 129.69 134.58 129 136.12C 128.82242 136.55139 128.45183 136.87381 128 136.98999C 127.34573 137.15187 126.674 137.23248 126 137.23z" stroke="none" fill="#093F68" fill-rule="nonzero" />
        <path d="M128.58 183.06L116.58 183.06L116.58 177.95L135.58 177.95L135.58 182.58L126.21 198.58L119.1 198.58L128.58 183.06z" stroke="none" fill="#093F68" fill-rule="nonzero" />
        <path d="M116.6 126.84C 116.600006 127.397804 116.40279 127.873924 116.008354 128.26836C 115.61392 128.66278 115.13781 128.86 114.58 128.86C 114.0222 128.86 113.54608 128.66278 113.15165 128.26836C 112.757225 127.873924 112.56001 127.397804 112.560005 126.84C 112.56001 126.282196 112.757225 125.806076 113.15165 125.411644C 113.54608 125.01721 114.0222 124.82 114.58 124.82C 115.13781 124.82 115.61392 125.01721 116.008354 125.411644C 116.40279 125.806076 116.600006 126.282196 116.6 126.84C 116.600006 126.8635 116.599594 126.887 116.59877 126.91049" stroke="none" fill="#093F68" fill-rule="nonzero" />
        <path d="M139.41 126.84C 139.41 127.397804 139.2128 127.873924 138.81836 128.26836C 138.42393 128.66278 137.94781 128.86 137.39 128.86C 136.83218 128.86 136.35608 128.66278 135.96164 128.26836C 135.56721 127.873924 135.37 127.397804 135.37 126.84C 135.37 126.282196 135.56721 125.806076 135.96164 125.411644C 136.35608 125.01721 136.83218 124.82 137.39 124.82C 137.94781 124.82 138.42393 125.01721 138.81836 125.411644C 139.2128 125.806076 139.41 126.282196 139.41 126.84C 139.41 126.8635 139.40959 126.887 139.40877 126.91049" stroke="none" fill="#093F68" fill-rule="nonzero" />
        <path d="M120.42 120.8L120.31 120.8L110.68 120.270004C 109.96547 120.230705 109.32618 119.813194 109.00295 119.17474C 108.67972 118.536285 108.72165 117.773895 109.11295 117.17474C 109.50425 116.57559 110.18547 116.230705 110.9 116.270004L110.9 116.270004L120.53 116.79C 121.63457 116.82037 122.50537 117.74043 122.475 118.845C 122.444626 119.94957 121.52457 120.82037 120.42 120.79L120.42 120.79L120.42 120.8z" stroke="none" fill="#093F68" fill-rule="nonzero" />
        <path d="M132.36 120.8C 131.25542 120.830376 130.33537 119.95957 130.305 118.855C 130.27461 117.750435 131.14542 116.830376 132.25 116.8L132.25 116.8L141.88 116.28001C 142.59454 116.24071 143.27576 116.585594 143.66705 117.184746C 144.05835 117.7839 144.10028 118.546295 143.77705 119.184746C 143.45383 119.8232 142.81454 120.24071 142.1 120.28001L142.1 120.28001L132.47 120.810005L132.36 120.8z" stroke="none" fill="#093F68" fill-rule="nonzero" />
        <path d="M125.89 144.2C 124.2415 144.21559 122.60639 143.90285 121.08 143.28C 119.41513 142.62343 117.94296 141.55714 116.8 140.18C 116.46981 139.73811 116.55977 139.11234 117.00105 138.78137C 117.44234 138.45041 118.068275 138.53928 118.4 138.98C 118.590004 139.23999 123.15 145.06 132.93001 140.43C 133.42984 140.1925 134.02753 140.40517 134.26501 140.905C 134.5025 141.40482 134.28984 142.0025 133.79001 142.23999C 131.33612 143.4752 128.63667 144.14494 125.89 144.2z" stroke="none" fill="#093F68" fill-rule="nonzero" />
        <path d="M234.2 197.07L234.2 220.07L169.2 220.07L169.2 197.07C 169.08095 186.88481 173.67207 177.21542 181.64 170.87001C 186.52455 167.0362 192.55058 164.94539 198.76 164.93001L198.76 164.93001L204.68 164.93001C 210.89218 164.94698 216.9209 167.0375 221.81 170.87001C 229.7592 177.22546 234.33115 186.89333 234.2 197.07z" stroke="none" fill="#E28362" fill-rule="nonzero" />
        <path d="M234.2 221L169.2 221C 168.6477 221 168.2 220.55229 168.2 220L168.2 220L168.2 197C 168.10327 186.50949 172.82951 176.55563 181.01999 170C 186.08179 166.02863 192.3262 163.86385 198.76 163.85L198.76 163.85L204.68 163.85C 211.11403 163.8623 217.35893 166.02725 222.42 170C 230.61406 176.5528 235.34119 186.50851 235.23999 197L235.23999 197L235.23999 220C 235.24022 220.2723 235.1294 220.5329 234.93312 220.72162C 234.73683 220.91035 234.47209 221.01088 234.2 221zM170.2 219L233.2 219L233.2 197C 233.31224 187.13992 228.88786 177.775 221.2 171.6C 216.49356 167.89397 210.68045 165.87292 204.69 165.86L204.69 165.86L198.77 165.86C 192.7801 165.876 186.96796 167.89671 182.26001 171.6C 174.55702 177.76784 170.11438 187.13242 170.21 197z" stroke="none" fill="#093F68" fill-rule="nonzero" />
        <path d="M221.77 170.87L221.77 220L181.6 220L181.6 170.87C 183.97272 169.02538 186.62207 167.56738 189.45001 166.54999C 192.4227 165.47649 195.55945 164.92833 198.72002 164.93L198.72002 164.93L204.64001 164.93C 207.8006 164.92833 210.93735 165.47649 213.91002 166.54999C 216.74104 167.56735 219.39369 169.0253 221.77 170.87z" stroke="none" fill="#68E1FD" fill-rule="nonzero" />
        <path d="M221.77 221L181.6 221C 181.04771 221 180.6 220.55229 180.6 220L180.6 220L180.6 170.87C 180.59836 170.56223 180.73853 170.27083 180.98001 170.08C 183.44048 168.17538 186.18361 166.66718 189.11002 165.61C 192.19261 164.50047 195.44382 163.9321 198.72002 163.93001L198.72002 163.93001L204.64001 163.93001C 207.91629 163.93109 211.16766 164.49948 214.25002 165.61C 217.17738 166.66505 219.92082 168.17345 222.38002 170.08C 222.62526 170.2688 222.76927 170.5605 222.77002 170.87L222.77002 170.87L222.77002 220C 222.77002 220.26521 222.66466 220.51958 222.47713 220.7071C 222.28958 220.89465 222.03522 221 221.77 221zM182.6 219L220.77 219L220.77 171.37C 218.57895 169.72989 216.15565 168.42555 213.58 167.5C 210.71373 166.4617 207.68854 165.93044 204.64 165.93L204.64 165.93L198.72 165.93C 195.67572 165.93202 192.65466 166.45978 189.79001 167.48999C 187.2148 168.42096 184.7918 169.7285 182.6 171.37z" stroke="none" fill="#093F68" fill-rule="nonzero" />
        <path d="M213.91 166.55C 213.14 174.55 207.91 180.8 201.68001 180.8C 195.45001 180.8 190.22 174.58 189.45001 166.55C 192.4227 165.4765 195.55945 164.92834 198.72002 164.93001L198.72002 164.93001L204.64001 164.93001C 207.80057 164.92834 210.93733 165.4765 213.91 166.55z" stroke="none" fill="#E28362" fill-rule="nonzero" />
        <path d="M201.68 181.8C 194.96999 181.8 189.29 175.29001 188.45 166.65001C 188.42384 166.20718 188.69255 165.80006 189.11 165.65001C 192.19261 164.54048 195.44382 163.9721 198.72 163.97002L198.72 163.97002L204.64 163.97002C 207.91629 163.9711 211.16766 164.53949 214.25 165.65001C 214.66745 165.80006 214.93616 166.20718 214.91 166.65001C 214.08 175.29 208.39 181.8 201.68 181.8zM190.54 167.24C 191.54 174.46 196.2 179.8 201.68 179.8C 207.15999 179.8 211.84999 174.46 212.82999 167.24C 210.18689 166.3711 207.42224 165.92888 204.63998 165.93001L204.63998 165.93001L198.71999 165.93001C 195.94095 165.92805 193.17946 166.3703 190.54 167.24z" stroke="none" fill="#093F68" fill-rule="nonzero" />
        <path d="M196.89 167.02L196.89 155.34L205.77 155.34L205.77 167.02" stroke="none" fill="#E28362" fill-rule="nonzero" />
        <path d="M205.77 168C 205.21771 168 204.77 167.55229 204.77 167L204.77 167L204.77 156.34L197.89 156.34L197.89 167C 197.89 167.55229 197.44229 168 196.89 168C 196.3377 168 195.89 167.55229 195.89 167L195.89 167L195.89 155.34C 195.89 154.7877 196.3377 154.34 196.89 154.34L196.89 154.34L205.77 154.34C 206.3223 154.34 206.77 154.7877 206.77 155.34L206.77 155.34L206.77 167C 206.77 167.55229 206.3223 168 205.77 168z" stroke="none" fill="#093F68" fill-rule="nonzero" />
        <path d="M219.65 131.97C 219.65 127.76711 222.49747 124.36 226.01 124.36C 229.52252 124.36 232.37 127.76711 232.37 131.97C 232.37 136.17288 229.52252 139.58 226.01 139.58C 222.49747 139.58 219.65 136.17288 219.65 131.97" stroke="none" fill="#E28362" fill-rule="nonzero" />
        <path d="M226 140.58C 221.94 140.58 218.63 136.72 218.63 131.97C 218.63 127.22 221.94 123.36 226 123.36C 230.06 123.36 233.36 127.22 233.36 131.97C 233.36 136.72 230.07 140.58 226 140.58zM226 125.36C 223 125.36 220.63 128.36 220.63 131.97C 220.63 135.58 223.04001 138.58 226 138.58C 228.95999 138.58 231.36 135.58 231.36 131.97C 231.36 128.36 229 125.36 226 125.36z" stroke="none" fill="#093F68" fill-rule="nonzero" />
        <path d="M170.99 131.97C 170.99 127.76711 173.83748 124.36 177.35 124.36C 180.86253 124.36 183.71 127.76711 183.71 131.97C 183.71 136.17288 180.86253 139.58 177.35 139.58C 173.83748 139.58 170.99 136.17288 170.99 131.97" stroke="none" fill="#E28362" fill-rule="nonzero" />
        <path d="M177.35 140.58C 173.29001 140.58 169.99 136.72 169.99 131.97C 169.99 127.22 173.29001 123.36 177.35 123.36C 181.41 123.36 184.72 127.22 184.72 131.97C 184.72 136.72 181.41 140.58 177.35 140.58zM177.35 125.36C 174.40001 125.36 171.99 128.36 171.99 131.97C 171.99 135.58 174.40001 138.58 177.35 138.58C 180.3 138.58 182.72 135.58 182.72 131.97C 182.72 128.36 180.31 125.36 177.35 125.36z" stroke="none" fill="#093F68" fill-rule="nonzero" />
        <path d="M200 95.35L203.29 95.35C 208.82771 95.34999 214.13861 97.54984 218.05438 101.46561C 221.97014 105.38136 224.16998 110.69227 224.17 116.229996L224.17 116.229996L224.17 130.29L224.17 130.29L224.17 130.29L224.17 130.29L179.12 130.29L179.12 130.29L179.12 130.29L179.12 130.29L179.12 116.23C 179.12 110.69228 181.31985 105.38137 185.23561 101.46561C 189.15137 97.54985 194.46228 95.34999 200 95.35z" stroke="none" fill="#725858" fill-rule="nonzero" />
        <path d="M224.17 131.29L179.17 131.29C 178.6177 131.29 178.17 130.84229 178.17 130.29L178.17 130.29L178.17 116.23C 178.18094 104.17005 187.9401 94.38854 200 94.35L200 94.35L203.29 94.35C 215.36942 94.361015 225.15897 104.15057 225.17 116.229996L225.17 116.229996L225.17 130.29C 225.17 130.84229 224.72229 131.29 224.17 131.29zM180.17 129.29L223.17 129.29L223.17 116.23C 223.15897 105.25515 214.26485 96.36103 203.29 96.350006L203.29 96.350006L200 96.350006C 189.02515 96.36103 180.13103 105.25515 180.12 116.23z" stroke="none" fill="#093F68" fill-rule="nonzero" />
        <path d="M224.24 124.53L224.24 140.58C 224.24 153.03955 214.13956 163.14 201.68001 163.14C 189.22046 163.14 179.12001 153.03955 179.12001 140.58L179.12001 140.58L179.12001 124.53C 179.12001 99.36 188.48001 116.99 201.68001 116.99C 214.88 116.99 224.24 99.36 224.24 124.53z" stroke="none" fill="#E28362" fill-rule="nonzero" />
        <path d="M201.68 164.14C 188.67502 164.12347 178.13652 153.58498 178.12 140.58L178.12 140.58L178.12 124.53C 178.12 116.19 179.12 112.009995 181.47 110.53C 183.82 109.05 186.78 110.6 190.24 112.34C 193.70001 114.079994 197.44 115.96 201.68001 115.96C 205.92001 115.96 209.75 114.04 213.12001 112.34C 216.49002 110.63999 219.57 109.1 221.89001 110.53C 224.21002 111.96 225.24002 116.159996 225.24002 124.53L225.24002 124.53L225.24002 140.58C 225.2235 153.58499 214.68498 164.12349 201.68 164.14zM183.6 112C 183.22232 111.99169 182.84933 112.08494 182.52 112.27C 180.90001 113.27 180.12001 117.27 180.12001 124.53999L180.12001 124.53999L180.12001 140.59C 180.12411 152.49434 189.77565 162.14255 201.68001 162.14255C 213.58435 162.14255 223.2359 152.49434 223.24 140.59L223.24 140.59L223.24 124.53C 223.24 117.27 222.46 113.259995 220.84001 112.259995C 219.47002 111.42 216.95001 112.689995 214.02 114.159996C 210.62001 115.869995 206.40001 117.99 201.68001 117.99C 196.96 117.99 192.74 115.869995 189.34001 114.159996C 187.06 113 185 112 183.6 112z" stroke="none" fill="#093F68" fill-rule="nonzero" />
        <path d="M224.24 134.75L224.24 140.58C 224.24278 148.64175 219.94348 156.09233 212.96225 160.12402C 205.98102 164.1557 197.37898 164.1557 190.39777 160.12402C 183.41653 156.09233 179.11723 148.64175 179.12001 140.58L179.12001 140.58L179.12001 134.75C 179.11354 140.73434 181.49237 146.4745 185.73001 150.7C 187.18442 152.16658 188.83716 153.42212 190.64001 154.43C 191.82 150.51 196.38002 145.93 201.64001 145.93C 206.90001 145.93 211.50002 150.51 212.64001 154.43C 219.79079 150.46037 224.23018 142.92871 224.24 134.75z" stroke="none" fill="#093F68" fill-rule="nonzero" />
        <path d="M201.68 164.15C 188.66884 164.13896 178.1255 153.59116 178.12 140.57999L178.12 140.57999L178.12 134.74998C 178.12 134.1977 178.5677 133.74998 179.12 133.74998C 179.67229 133.74998 180.12 134.1977 180.12 134.74998C 180.099 140.47464 182.37575 145.96838 186.44 150C 187.5493 151.1359 188.78386 152.14233 190.12 153C 191.9 148.94 196.48999 145 201.68 145C 206.87 145 211.45999 149 213.23999 153C 219.46239 149.03418 223.23253 142.16876 223.23999 134.79001C 223.23999 134.23772 223.6877 133.79001 224.23999 133.79001C 224.79228 133.79001 225.23999 134.23772 225.23999 134.79001L225.23999 134.79001L225.23999 140.62001C 225.20146 153.611 214.671 164.12804 201.68 164.15zM180.68 145.42C 182.95035 155.18607 191.6535 162.09804 201.68 162.09804C 211.70648 162.09804 220.40964 155.18607 222.68 145.42C 220.57506 149.5979 217.27057 153.05212 213.18999 155.34C 212.92569 155.48975 212.60767 155.51125 212.3256 155.39844C 212.04356 155.28561 211.8281 155.0507 211.73999 154.76C 210.60999 151 206.29 146.97 201.65999 146.97C 197.02998 146.97 192.65999 150.97 191.57999 154.76C 191.4935 155.05013 191.28023 155.28546 190.99998 155.4C 190.71608 155.51416 190.39554 155.49205 190.12999 155.34C 188.24709 154.2887 186.52037 152.97937 184.99998 151.45C 183.24835 149.67809 181.78406 147.64359 180.66 145.42z" stroke="none" fill="#093F68" fill-rule="nonzero" />
        <path d="M202.92 143.67C 201.42467 143.64273 199.99527 143.04953 198.92 142.01C 198.58678 141.6062 198.6214 141.01375 198.99937 140.65152C 199.37737 140.28929 199.97075 140.27989 200.36 140.62999C 201.37315 141.57759 202.82306 141.89595 204.14 141.45999C 204.77 140.82999 203.45 136.01 200.79 130.73999C 200.66821 130.5028 200.6462 130.22682 200.7288 129.97334C 200.81143 129.71985 200.99185 129.50984 201.23 129.38998C 201.7243 129.14452 202.32404 129.34592 202.56999 129.83998C 203.35999 131.38998 207.2 139.26999 206.03 142.14998C 205.81 142.71428 205.35281 143.15318 204.78 143.34998C 204.18259 143.5611 203.55365 143.66931 202.92 143.67z" stroke="none" fill="#093F68" fill-rule="nonzero" />
        <path d="M195.64 198.75L195.64 198.69C 193.77 197.69 192.81 196.34 192.81 194.83C 192.81 191.23 196.41 189.09 201.7 189.09C 206.98999 189.09 210.51999 191.23 210.51999 194.83C 210.51999 196.37 209.51999 197.65001 207.69998 198.69L207.69998 198.69L207.69998 198.75C 210.09402 199.36192 211.79695 201.48041 211.87997 203.95C 211.96997 207.59999 207.21997 210.33 201.69998 210.27C 196.18 210.21 191.38998 207.6 191.47998 203.95C 191.57349 201.49092 193.26141 199.38103 195.64 198.75zM201.7 201C 199.17 201 197.59999 201.77 197.59999 203C 197.59999 204.23 199.17 205.07 201.7 205.07C 204.23 205.07 205.77 204.33 205.77 203C 205.77 201.67 204.19 201 201.7 201zM201.7 193.18C 199.7 193.18 198.52 193.87 198.52 195.07999C 198.52 196.28998 199.77 196.9 201.7 196.9C 203.62999 196.9 204.84 196.15 204.84 195.07999C 204.84 194.00998 203.63 193.22 201.7 193.22z" stroke="none" fill="#093F68" fill-rule="nonzero" />
        <path d="M192.58 131.08C 192.58002 131.63782 192.3828 132.11394 191.98836 132.50836C 191.59393 132.9028 191.11781 133.1 190.56 133.1C 190.0022 133.1 189.52608 132.9028 189.13164 132.50836C 188.73721 132.11394 188.54 131.63782 188.54 131.08C 188.54 130.52219 188.73721 130.04608 189.13164 129.65164C 189.52608 129.25722 190.0022 129.06 190.56 129.06C 191.11781 129.06 191.59393 129.25722 191.98836 129.65164C 192.3828 130.04608 192.58002 130.52219 192.58 131.08C 192.58002 131.10352 192.57959 131.12701 192.57877 131.1505" stroke="none" fill="#093F68" fill-rule="nonzero" />
        <path d="M215.39 131.08C 215.39001 131.63782 215.1928 132.11394 214.79836 132.50836C 214.40393 132.9028 213.92781 133.1 213.37 133.1C 212.8122 133.1 212.33607 132.9028 211.94164 132.50836C 211.54721 132.11394 211.34999 131.63782 211.34999 131.08C 211.34999 130.52219 211.54721 130.04608 211.94164 129.65164C 212.33607 129.25722 212.8122 129.06 213.37 129.06C 213.92781 129.06 214.40393 129.25722 214.79836 129.65164C 215.1928 130.04608 215.39001 130.52219 215.39 131.08C 215.39001 131.10352 215.38959 131.12701 215.38876 131.1505" stroke="none" fill="#093F68" fill-rule="nonzero" />
        <path d="M196.41 125.05L196.3 125.05L186.66 124.520004C 185.55876 124.4608 184.71327 123.52136 184.77 122.420006C 184.79839 121.88928 185.03685 121.39168 185.43274 121.03707C 185.82863 120.682465 186.34937 120.500015 186.88 120.53001L186.88 120.53001L196.51001 121.060005C 197.61458 121.08762 198.48763 122.00544 198.46 123.11001C 198.43239 124.21458 197.51457 125.08762 196.41 125.060005L196.41 125.060005L196.41 125.05z" stroke="none" fill="#093F68" fill-rule="nonzero" />
        <path d="M208.34 125.05C 207.23543 125.07762 206.31761 124.204575 206.29 123.100006C 206.26237 121.99544 207.13542 121.07762 208.23999 121.05L208.23999 121.05L217.87 120.520004C 218.97456 120.45925 219.91925 121.305435 219.98 122.41C 220.04074 123.51457 219.19456 124.45925 218.09 124.520004L218.09 124.520004L208.45 125.05L208.34 125.05z" stroke="none" fill="#093F68" fill-rule="nonzero" />
        <path d="M207.93 153.3C 207.93 154.94 205.12999 157.75 201.68 157.75C 198.23 157.75 195.43 154.94 195.43 153.3C 195.43 151.66 198.23 152.03 201.68 152.03C 205.12999 152.03 207.93 151.66 207.93 153.3z" stroke="none" fill="#FFC9B0" fill-rule="nonzero" />
        <path d="M201.68 158.75C 197.68 158.75 194.43 155.45 194.43 153.3C 194.42155 152.76147 194.63066 152.24232 195.01 151.86C 195.95 150.94 197.68 150.97 200.08 151.01C 201.08 151.01 202.26 151.01 203.29001 151.01C 205.69 151.01 207.41 150.93999 208.35 151.86C 208.72935 152.24232 208.93846 152.76147 208.93001 153.3C 208.93 155.45 205.68 158.75 201.68 158.75zM198.82 153C 198.00914 152.9136 197.18921 153.00926 196.42001 153.28C 196.42001 154.28 198.70001 156.75 201.68001 156.75C 204.66 156.75 206.93001 154.3 206.93001 153.3L206.93001 153.3L206.93001 153.25C 206.62001 152.95 204.64001 152.99 203.32 153.01C 202.32 153.01 201.09001 153.01 200.04001 153.01z" stroke="none" fill="#093F68" fill-rule="nonzero" />
        <path d="M176.67 109.99L226.01 109.99L226.01 118.549995L176.67 118.549995z" stroke="none" fill="#FFFFFF" fill-rule="nonzero" />
        <path d="M226 119.55L176.67 119.55C 176.1177 119.55 175.67 119.10229 175.67 118.55L175.67 118.55L175.67 110C 175.67 109.447716 176.1177 109 176.67 109L176.67 109L226 109C 226.55229 109 227 109.447716 227 110L227 110L227 118.56C 226.99452 119.108376 226.5484 119.55003 226 119.55zM177.66 117.55L225 117.55L225 111L177.67 111z" stroke="none" fill="#093F68" fill-rule="nonzero" />
        <path d="M309.09 187.3L309.09 210.25L244.09 210.25L244.09 187.3C 243.97095 177.11482 248.56207 167.44543 256.53 161.1C 261.41528 157.26755 267.44083 155.17691 273.65 155.16L273.65 155.16L279.58 155.16C 285.78915 155.17691 291.8147 157.26755 296.69998 161.1C 304.6492 167.45547 309.22113 177.12334 309.09 187.3z" stroke="none" fill="#FFC9B0" fill-rule="nonzero" />
        <path d="M309.09 211.25L244.09 211.25C 243.5377 211.25 243.09 210.80229 243.09 210.25L243.09 210.25L243.09 187.3C 242.99272 176.80713 247.72339 166.85173 255.92 160.3C 260.97723 156.3273 267.219 154.16223 273.65 154.15001L273.65 154.15001L279.58 154.15001C 286.011 154.16223 292.25275 156.3273 297.31 160.3C 305.5041 166.85278 310.2312 176.80849 310.13 187.3L310.13 187.3L310.13 210.25C 310.13022 210.5223 310.01938 210.7829 309.82312 210.97163C 309.62683 211.16035 309.36206 211.26088 309.09 211.25zM245.09 209.25L308.09 209.25L308.09 187.3C 308.19638 177.43839 303.77344 168.07285 296.09 161.89C 291.3811 158.18959 285.56882 156.17236 279.58 156.16L279.58 156.16L273.65 156.16C 267.66193 156.17697 261.8511 158.1937 257.13998 161.89C 249.4378 168.06285 244.99574 177.4299 245.08998 187.3z" stroke="none" fill="#093F68" fill-rule="nonzero" />
        <path d="M296.66 161.1L296.66 210.25L256.49 210.25L256.49 161.1C 258.8627 159.25539 261.51205 157.7974 264.34 156.78C 267.3131 155.70827 270.44955 155.16016 273.61 155.16L273.61 155.16L279.53998 155.16C 282.7004 155.16016 285.83685 155.70827 288.80997 156.78C 291.63794 157.7974 294.2873 159.25537 296.66 161.1z" stroke="none" fill="#68E1FD" fill-rule="nonzero" />
        <path d="M296.66 211.25L256.49 211.25C 255.9377 211.25 255.48999 210.80229 255.48999 210.25L255.48999 210.25L255.48999 161.1C 255.49074 160.79051 255.63475 160.49881 255.87999 160.31001C 258.3367 158.39967 261.08075 156.89095 264.00998 155.84001C 267.08893 154.72968 270.33698 154.16127 273.61 154.16002L273.61 154.16002L279.53998 154.16002C 282.813 154.16127 286.06104 154.72968 289.13998 155.84001C 292.0692 156.89093 294.8133 158.39967 297.27 160.31001C 297.51523 160.49881 297.65924 160.79051 297.66 161.1L297.66 161.1L297.66 210.25C 297.66 210.80229 297.21228 211.25 296.66 211.25zM257.49 209.25L295.65997 209.25L295.65997 161.6C 293.47128 159.9562 291.04742 158.65157 288.46997 157.73001C 285.6069 156.69266 282.58517 156.1614 279.53998 156.16L279.53998 156.16L273.61 156.16C 270.56573 156.16203 267.54465 156.68979 264.68 157.72C 262.10303 158.64703 259.67947 159.95486 257.49 161.6z" stroke="none" fill="#093F68" fill-rule="nonzero" />
        <path d="M288.81 156.78C 288.03 164.78 282.81 171.03 276.57 171.03C 270.33002 171.03 265.11002 164.81 264.34 156.78C 267.3131 155.70827 270.44955 155.16016 273.61 155.16L273.61 155.16L279.53998 155.16C 282.70038 155.16016 285.83685 155.70827 288.81 156.78z" stroke="none" fill="#FFC9B0" fill-rule="nonzero" />
        <path d="M276.57 172C 269.87 172 264.18 165.49 263.35 156.85C 263.3224 156.40979 263.5865 156.00351 264 155.85C 267.0826 154.74048 270.33377 154.17212 273.61 154.17001L273.61 154.17001L279.53998 154.17001C 282.813 154.17126 286.06104 154.73967 289.13998 155.85C 289.5574 156.00006 289.8261 156.40718 289.8 156.85C 289 165.52 283.28 172 276.57 172zM265.43 157.44C 266.43 164.65001 271.1 170 276.57 170C 282.04 170 286.74002 164.65 287.72 157.44C 285.08017 156.5718 282.3189 156.1296 279.54 156.13L279.54 156.13L273.61002 156.13C 270.82947 156.13928 268.06818 156.59161 265.43 157.47z" stroke="none" fill="#093F68" fill-rule="nonzero" />
        <path d="M271.79 157.25L271.79 145.57L280.66 145.57L280.66 157.25" stroke="none" fill="#FFC9B0" fill-rule="nonzero" />
        <path d="M280.66 158.25C 280.10773 158.25 279.66 157.80229 279.66 157.25L279.66 157.25L279.66 146.57L272.79 146.57L272.79 157.25C 272.79 157.80229 272.3423 158.25 271.79 158.25C 271.23773 158.25 270.79 157.80229 270.79 157.25L270.79 157.25L270.79 145.57C 270.79 145.01772 271.23773 144.57 271.79 144.57L271.79 144.57L280.66 144.57C 281.21228 144.57 281.66 145.01772 281.66 145.57L281.66 145.57L281.66 157.25C 281.66 157.80229 281.21228 158.25 280.66 158.25z" stroke="none" fill="#093F68" fill-rule="nonzero" />
        <path d="M273.85 87.56C 274.8817 87.39489 275.9252 87.31462 276.97 87.32C 281.78 87.32 286.7 87.19 291.1 89.32C 300.1804 93.804 305.9485 103.032974 306 113.16L306 113.16L306 132.9L247.22 132.9C 246.88 131.73999 247.4 130.37 247.45 129.20999C 247.41864 127.921265 247.22717 126.64146 246.87999 125.399994C 246.19423 122.18245 245.80592 118.908676 245.71999 115.619995C 245.74483 110.44024 246.82338 105.31968 248.88998 100.56999C 250.05998 97.70999 251.43999 94.74999 253.95999 92.96999C 256.47998 91.189995 260.47998 91.13 262.28 93.63999C 265.35025 90.37912 269.42297 88.23892 273.85 87.56z" stroke="none" fill="#725858" fill-rule="nonzero" />
        <path d="M306 133.9L247.22 133.9C 246.758 133.91708 246.34451 133.61523 246.22 133.17C 245.99919 132.22607 245.99919 131.24393 246.22 130.3C 246.29494 129.92705 246.34503 129.54956 246.37 129.17C 246.36668 128.25102 246.24228 127.33647 246 126.45L246 126.45L245.82 125.6C 245.1209 122.30987 244.7259 118.962494 244.64001 115.6C 244.69005 110.28713 245.8338 105.04147 248 100.19C 249.17 97.32 250.66 94.100006 253.42 92.19C 255.95999 90.39 259.96 90.100006 262.34 92.19C 265.4629 89.18776 269.4378 87.22474 273.72 86.57C 274.79187 86.402664 275.87512 86.31908 276.96 86.32L276.96 86.32L277.86 86.32C 282.46 86.32 287.21997 86.32 291.56998 88.44C 300.98544 93.086624 306.96133 102.66044 307 113.16L307 113.16L307 132.9C 307 133.45229 306.55228 133.9 306 133.9zM248.14 131.9L305 131.9L305 113.16C 304.96692 103.4232 299.42365 94.54467 290.69 90.240005C 286.76 88.32001 282.24 88.32001 277.86002 88.32001L277.86002 88.32001L277 88.32001C 275.99536 88.31365 274.99194 88.39059 274 88.55001C 269.79044 89.186615 265.91666 91.21858 263 94.32001C 262.79758 94.539185 262.50787 94.65653 262.21 94.64001C 261.91122 94.62245 261.63605 94.472015 261.46 94.23C 260.00998 92.23 256.61 92.32 254.53 93.79C 252.20999 95.43 250.92 98.22 249.81 100.95C 247.78896 105.57099 246.73401 110.55643 246.70999 115.6C 246.7988 118.8279 247.18036 122.04106 247.84999 125.2L247.84999 125.2L248.02998 126.02C 248.30775 127.07742 248.4456 128.16672 248.43999 129.26C 248.4102 129.72343 248.35007 130.18442 248.26 130.64C 248.18427 131.05652 248.13417 131.47731 248.11 131.9z" stroke="none" fill="#093F68" fill-rule="nonzero" />
        <path d="M244.05 130.52C 244.05 126.64297 247.69888 123.50001 252.2 123.50001C 256.7011 123.50001 260.35 126.64297 260.35 130.52C 260.35 134.39705 256.7011 137.54001 252.2 137.54001C 247.69888 137.54001 244.05 134.39705 244.05 130.52" stroke="none" fill="#FFC9B0" fill-rule="nonzero" />
        <path d="M252.2 138.54C 247.2 138.54 243.05 134.93999 243.05 130.54C 243.05 126.14 247.16 122.53999 252.2 122.53999C 257.24 122.53999 261.35 126.12999 261.35 130.54C 261.35 134.95 257.24 138.54 252.2 138.54zM252.2 124.53999C 248.26 124.53999 245.05 127.23999 245.05 130.54C 245.05 133.84 248.26001 136.54 252.2 136.54C 256.13998 136.54 259.35 133.82999 259.35 130.54C 259.35 127.25 256.14 124.5 252.2 124.5z" stroke="none" fill="#093F68" fill-rule="nonzero" />
        <path d="M291.54 130.52C 291.54 126.64297 295.18887 123.50001 299.69 123.50001C 304.19113 123.50001 307.84 126.64297 307.84 130.52C 307.84 134.39705 304.19113 137.54001 299.69 137.54001C 295.18887 137.54001 291.54 134.39705 291.54 130.52" stroke="none" fill="#FFC9B0" fill-rule="nonzero" />
        <path d="M299.69 138.54C 294.69 138.54 290.55 134.93999 290.55 130.54C 290.55 126.14 294.65 122.53999 299.69 122.53999C 304.73 122.53999 308.84 126.12999 308.84 130.54C 308.84 134.95 304.73 138.54 299.69 138.54zM299.69 124.53999C 295.75 124.53999 292.55 127.23999 292.55 130.54C 292.55 133.84 295.75 136.54 299.69 136.54C 303.63 136.54 306.84 133.82999 306.84 130.54C 306.84 127.25 303.63 124.5 299.69 124.5z" stroke="none" fill="#093F68" fill-rule="nonzero" />
        <path d="M276.16 153.39C 269.64456 153.39265 263.39505 150.80626 258.787 146.20009C 254.17894 141.5939 251.59 135.34544 251.59 128.83L251.59 128.83L251.59 115.6C 251.59 115.6 257.78 112.07 259.59 106.509995C 259.59 106.509995 271.33 110.95999 278.13 110.939995C 285.91934 111.00083 293.62604 109.341354 300.7 106.079994L300.7 106.079994L300.7 128.82999C 300.69998 142.38629 289.71628 153.37895 276.16 153.39z" stroke="none" fill="#FFC9B0" fill-rule="nonzero" />
        <path d="M276.16 154.39C 262.04883 154.37347 250.61205 142.94116 250.59 128.83L250.59 128.83L250.59 115.6C 250.59062 115.239235 250.7855 114.90677 251.09999 114.729996C 251.15999 114.729996 256.97 111.31999 258.66998 106.2C 258.7555 105.94057 258.94336 105.727394 259.18997 105.61C 259.43924 105.50442 259.72067 105.50442 259.96997 105.61C 260.08997 105.66 271.57996 109.98 278.11996 109.98C 285.74774 110.023575 293.29318 108.40254 300.22998 105.23C 300.5403 105.06924 300.91205 105.08215 301.21048 105.26407C 301.5089 105.445984 301.6907 105.77051 301.68997 106.12L301.68997 106.12L301.68997 128.87C 301.64603 142.94995 290.23996 154.35156 276.16 154.39zM252.59 116.16L252.59 128.83C 252.60002 141.84024 263.14972 152.3818 276.15997 152.3818C 289.17023 152.3818 299.7199 141.84024 299.72998 128.83L299.72998 128.83L299.72998 107.65C 292.8949 110.49394 285.56305 111.95216 278.15997 111.94C 272.30997 111.94 263.15997 108.850006 260.23996 107.79C 258.31 112.22 254.06 115.22 252.59 116.16z" stroke="none" fill="#093F68" fill-rule="nonzero" />
        <path d="M277.72 143.38C 272.49 143.38 266.93 140.53 266.6 140.38C 266.11136 140.1231 265.92334 139.5188 266.18 139.03C 266.43668 138.54718 267.0336 138.36009 267.52 138.61C 267.62997 138.61 277.94 143.93001 282.52 139.89C 282.7826 139.62961 283.16742 139.53537 283.5206 139.645C 283.87378 139.75464 284.13763 140.05023 284.2066 140.41354C 284.27557 140.77686 284.13843 141.14857 283.84998 141.38C 282.12375 142.78087 279.9402 143.4933 277.72 143.38z" stroke="none" fill="#093F68" fill-rule="nonzero" />
        <path d="M276.66 135.89C 275.9498 135.9287 275.2413 135.78767 274.6 135.48C 274.14777 135.19247 274.00256 134.5996 274.27075 134.13565C 274.5389 133.67169 275.12515 133.50162 275.6 133.75C 276.55627 134.00085 277.56546 133.96259 278.5 133.64C 278.6 133.64 278.6 133.64 278.62 133.56999C 278.9 132.85999 277.88998 130.45 276.8 128.73C 276.65805 128.5059 276.611 128.2346 276.66913 127.975784C 276.72726 127.71698 276.88583 127.49187 277.11 127.35C 277.33408 127.20808 277.60538 127.161 277.8642 127.21914C 278.12302 127.277275 278.3481 127.43586 278.49 127.659996C 279.16 128.72 281.28 132.31999 280.49 134.31999C 280.23413 134.96774 279.67108 135.44447 278.99 135.59C 278.22736 135.77869 277.4456 135.87935 276.66 135.89z" stroke="none" fill="#093F68" fill-rule="nonzero" />
        <path d="M267.03 124.84C 267.03 125.4199 266.82498 125.91487 266.41492 126.32492C 266.00488 126.73497 265.5099 126.939995 264.93 126.939995C 264.3501 126.939995 263.85513 126.73497 263.44507 126.32492C 263.03503 125.91487 262.83002 125.4199 262.83 124.84C 262.83002 124.2601 263.03503 123.76512 263.44507 123.35507C 263.85513 122.94502 264.3501 122.740005 264.93 122.74C 265.5099 122.740005 266.00488 122.94502 266.41492 123.35507C 266.82498 123.76512 267.03 124.2601 267.03 124.84C 267.03 124.86444 267.02957 124.88887 267.02872 124.913284" stroke="none" fill="#093F68" fill-rule="nonzero" />
        <path d="M290.69 124.84C 290.69 125.4199 290.485 125.91487 290.07492 126.32492C 289.6649 126.73497 289.16992 126.939995 288.59 126.939995C 288.01013 126.939995 287.51514 126.73497 287.10507 126.32492C 286.695 125.91487 286.49 125.4199 286.49 124.84C 286.49 124.2601 286.695 123.76512 287.10507 123.35507C 287.51514 122.94502 288.01013 122.740005 288.59 122.74C 289.16992 122.740005 289.6649 122.94502 290.07492 123.35507C 290.485 123.76512 290.69 124.2601 290.69 124.84C 290.69 124.86444 290.68958 124.88887 290.68872 124.913284" stroke="none" fill="#093F68" fill-rule="nonzero" />
        <path d="M271 118.5L270.89 118.5L260.89 117.95C 260.17548 117.9107 259.5362 117.49319 259.21295 116.85474C 258.8897 116.21628 258.93164 115.45389 259.32294 114.85474C 259.71426 114.255585 260.39548 113.9107 261.11002 113.95L261.11002 113.95L271.11002 114.5C 272.2146 114.53037 273.0854 115.450424 273.05502 116.55499C 273.02466 117.65956 272.1046 118.53037 271.00003 118.5L271.00003 118.5L271 118.5z" stroke="none" fill="#093F68" fill-rule="nonzero" />
        <path d="M283.38 118.5C 282.27542 118.53037 281.35538 117.65956 281.325 116.55499C 281.29465 115.450424 282.16544 114.53037 283.27002 114.5L283.27002 114.5L293.27002 113.95C 293.98453 113.9107 294.66574 114.255585 295.05707 114.85474C 295.44836 115.45389 295.4903 116.216286 295.16705 116.85474C 294.8438 117.49319 294.20453 117.9107 293.49002 117.95L293.49002 117.95L283.49002 118.5L283.38 118.5z" stroke="none" fill="#093F68" fill-rule="nonzero" />
        <path d="M275.14 193.59L275.14 196.94L262.7 196.94L262.7 194.66C 262.64273 193.57538 263.029 192.51408 263.77002 191.72C 264.88733 190.61188 266.3126 189.86612 267.86002 189.58C 270.86002 188.81 271.39 188.41 271.39 187.5C 271.39 186.76 270.64 186.23 269.29 186.23C 267.76254 186.10387 266.40225 187.1921 266.19 188.70999L266.19 188.70999L262.44 188.32999C 262.72 185.13998 265.54 182.98999 269.29 182.98999C 272.84 182.98999 275.29 184.87999 275.29 187.4C 275.29 189.92 273.82 191.11 270.51 192.06C 270.3472 192.09642 270.18686 192.14317 270.03 192.2C 269.11496 192.40384 268.2235 192.7021 267.37 193.09C 267.16675 193.1997 267.00775 193.37637 266.91998 193.59L266.91998 193.59L275.14 193.59z" stroke="none" fill="#093F68" fill-rule="nonzero" />
        <path d="M289.31 193.59L289.31 196.94L276.87 196.94L276.87 194.66C 276.8127 193.57538 277.19897 192.51408 277.94 191.72C 279.0573 190.61188 280.48257 189.86612 282.03 189.58C 285.03 188.81 285.56 188.41 285.56 187.5C 285.56 186.76 284.81 186.23 283.46 186.23C 281.93253 186.10387 280.57224 187.1921 280.36 188.70999L280.36 188.70999L276.61 188.32999C 276.88998 185.13998 279.71 182.98999 283.46 182.98999C 287.00998 182.98999 289.46 184.87999 289.46 187.4C 289.46 189.92 287.99 191.11 284.68 192.06C 284.51718 192.09642 284.35684 192.14317 284.19998 192.2C 283.28494 192.40384 282.3935 192.7021 281.53998 193.09C 281.33673 193.1997 281.17773 193.37637 281.08997 193.59L281.08997 193.59L289.31 193.59z" stroke="none" fill="#093F68" fill-rule="nonzero" />
	</g>
</g>
</svg>